<svg width="38" height="36" viewBox="0 0 38 36" fill="none" xmlns="http://www.w3.org/2000/svg">
<rect width="38" height="36" rx="7" fill="#1A97DC" fill-opacity="0.06"/>
<path d="M11.9999 18C11.9999 14.6863 14.6862 12 17.9999 12C21.3136 12 23.9999 14.6863 23.9999 18V19.831C23.9999 21.2503 24.3857 22.6429 25.1159 23.8599L25.6693 24.7823C26.0364 25.3941 26.2199 25.7 26.2325 25.9497C26.252 26.3366 26.0462 26.6999 25.7045 26.8823C25.4838 27 25.1271 27 24.4137 27H11.5862C10.8728 27 10.5161 27 10.2954 26.8823C9.95367 26.6999 9.74797 26.3366 9.76744 25.9497C9.78 25.7 9.96353 25.3941 10.3306 24.7823L10.884 23.8599C11.6142 22.6429 11.9999 21.2503 11.9999 19.831V18Z" fill="#1A97DC"/>
<path d="M20.35 28C20.4328 28 20.5007 28.0673 20.493 28.1498C20.4484 28.6254 20.1923 29.0746 19.7678 29.4142C19.2989 29.7893 18.663 30 18 30C17.337 30 16.7011 29.7893 16.2322 29.4142C15.8077 29.0746 15.5516 28.6254 15.507 28.1498C15.4993 28.0673 15.5672 28 15.65 28L18 28L20.35 28Z" fill="#1A97DC"/>
<circle cx="26.5" cy="9.5" r="2.5" fill="#FF5353"/>
</svg>
