<svg width="19" height="21" viewBox="0 0 19 21" fill="none" xmlns="http://www.w3.org/2000/svg">
<path d="M18.0827 11.7859C17.8394 11.7859 17.6062 11.6897 17.4343 11.5184C17.2624 11.3473 17.1657 11.115 17.1657 10.8728C17.1686 9.30857 16.6961 7.77993 15.8103 6.48804C14.9245 5.19615 13.6668 4.2014 12.2025 3.63425C10.7383 3.06728 9.13593 2.95466 7.6063 3.31145C6.07666 3.66804 4.69098 4.47698 3.63184 5.63243C3.47356 5.82853 3.24122 5.95088 2.98946 5.97076C2.73752 5.99064 2.48868 5.90624 2.3015 5.73743C2.11418 5.56863 2.00509 5.33042 2.00019 5.07904C1.9951 4.82746 2.09439 4.58509 2.27482 4.40909C3.58267 2.98131 5.2938 1.98095 7.18324 1.53942C9.07263 1.09789 11.0521 1.23597 12.8616 1.93523C14.6708 2.63447 16.2255 3.86237 17.3209 5.45755C18.4164 7.05272 19.0016 8.94044 18.9996 10.8727C18.9996 11.1149 18.903 11.3472 18.7311 11.5183C18.5593 11.6896 18.326 11.7858 18.0828 11.7858L18.0827 11.7859Z" fill="#1A97DC"/>
<path d="M7.65646 6.34983H3.12105C2.88042 6.34983 2.64967 6.25412 2.47963 6.08407C2.3094 5.91402 2.21387 5.68327 2.21387 5.44265V0.907241C2.21387 0.583115 2.38679 0.283611 2.66746 0.121613C2.94813 -0.0405376 3.29381 -0.0405376 3.57445 0.121613C3.85512 0.283584 4.02805 0.583106 4.02805 0.907241V4.53566H7.65647C7.98059 4.53566 8.2801 4.70841 8.4421 4.98908C8.60409 5.26975 8.60407 5.6156 8.4421 5.89625C8.28012 6.17692 7.9806 6.34985 7.65647 6.34985L7.65646 6.34983Z" fill="#1A97DC"/>
<path d="M17.9995 11.7856C17.7346 11.7872 17.4801 11.682 17.2924 11.4937C17.1048 11.3055 16.9993 11.0496 16.9995 10.7825C16.9997 10.5157 17.1056 10.2598 17.2935 10.0719C17.5329 9.84473 17.8645 9.74435 18.1884 9.80129C18.2542 9.81061 18.3181 9.83085 18.3772 9.8614C18.4405 9.88342 18.5008 9.91357 18.5563 9.95166L18.7054 10.0719H18.7052C18.8936 10.26 18.9995 10.5161 18.9995 10.7833C18.9995 11.0506 18.8936 11.3067 18.7052 11.495L18.5561 11.6152H18.5563C18.5008 11.6531 18.4405 11.6834 18.3772 11.7055C18.3181 11.736 18.2542 11.7562 18.1884 11.7656L17.9995 11.7856Z" fill="#1A97DC"/>
<path d="M7.42888 20.2843C7.18952 20.2328 6.98132 20.0821 6.85339 19.8679C6.72561 19.6536 6.68935 19.3948 6.75324 19.1523C6.80622 18.9161 6.94842 18.7113 7.14853 18.5828C7.34864 18.4545 7.59029 18.4129 7.82014 18.4675C8.05017 18.5219 8.24957 18.6679 8.37473 18.8734C8.49969 19.0789 8.54017 19.327 8.48702 19.563C8.44179 19.769 8.32844 19.9525 8.16635 20.0824C8.00425 20.2122 7.80343 20.2803 7.59788 20.2752C7.54208 20.2848 7.48541 20.2879 7.42892 20.2843L7.42888 20.2843ZM10.514 19.5905C10.4635 19.3558 10.5052 19.11 10.63 18.9065C10.7548 18.7032 10.9528 18.5586 11.1809 18.5042C11.4107 18.4495 11.6524 18.491 11.8525 18.6193C12.0526 18.7478 12.1948 18.9528 12.2478 19.1888C12.3009 19.425 12.2604 19.673 12.1355 19.8784C12.0104 20.0839 11.8109 20.2299 11.5809 20.2843H11.3854C11.1852 20.2863 10.9904 20.2187 10.8322 20.0929C10.6742 19.967 10.562 19.7899 10.514 19.5905L10.514 19.5905ZM3.68578 18.431C3.50256 18.2805 3.38482 18.0617 3.35824 17.8222C3.33167 17.5828 3.3982 17.3422 3.54357 17.153C3.69036 16.9649 3.90349 16.844 4.13669 16.8167C4.36971 16.7894 4.60396 16.8577 4.78824 17.007C4.9741 17.1579 5.0936 17.3785 5.12035 17.6202C5.14693 17.8618 5.07864 18.1045 4.93045 18.2942C4.76114 18.5087 4.50611 18.6329 4.237 18.632C4.03653 18.6307 3.84223 18.5601 3.68578 18.431L3.68578 18.431ZM14.0703 18.285C13.9249 18.0958 13.8584 17.8553 13.8849 17.616C13.9117 17.3765 14.0294 17.1577 14.2125 17.007C14.3962 16.8539 14.6317 16.7822 14.867 16.8078C15.1023 16.8335 15.3179 16.9546 15.4661 17.144C15.6143 17.3337 15.6826 17.5762 15.6558 17.8178C15.6292 18.0595 15.5097 18.2803 15.3239 18.431C15.1674 18.5601 14.9731 18.6307 14.7727 18.632C14.499 18.6334 14.2399 18.5055 14.0703 18.285L14.0703 18.285ZM1.09011 15.1082C0.985918 14.8902 0.970432 14.6388 1.04717 14.4093C1.1239 14.1798 1.28652 13.991 1.49912 13.8849C1.71137 13.7813 1.95495 13.7685 2.17654 13.8487C2.39812 13.9292 2.57957 14.0965 2.68148 14.3139C2.77528 14.5268 2.7862 14.7684 2.71175 14.9893C2.6373 15.2099 2.4833 15.393 2.28143 15.5007C2.15946 15.5615 2.0257 15.5925 1.89018 15.592C1.72633 15.5949 1.56493 15.5513 1.42376 15.4659C1.28244 15.3806 1.16698 15.2568 1.09007 15.1082L1.09011 15.1082ZM16.7285 15.5007C16.5145 15.396 16.35 15.2081 16.2715 14.9784C16.1929 14.7487 16.2072 14.4964 16.3107 14.2774C16.4189 14.064 16.6046 13.903 16.8278 13.8296C17.0508 13.756 17.2931 13.7759 17.5021 13.8849C17.7124 13.9911 17.8733 14.1782 17.9498 14.4055C18.0264 14.6329 18.0125 14.8821 17.9111 15.0989C17.8389 15.2544 17.7256 15.3856 17.5841 15.4777C17.4426 15.5697 17.2786 15.6189 17.1108 15.6194C16.9767 15.6077 16.8465 15.5674 16.7286 15.5007L16.7285 15.5007Z" fill="#1A97DC"/>
<path d="M0.999985 11.7856C0.736656 11.7818 0.484573 11.6783 0.294027 11.4955C0.105879 11.3076 0 11.052 0 10.7853C0 10.5185 0.105884 10.2629 0.294027 10.0752C0.529015 9.84097 0.864557 9.73979 1.18892 9.80514C1.25465 9.81444 1.31861 9.83464 1.37766 9.86513C1.43886 9.88513 1.49594 9.91562 1.54671 9.95522L1.70573 10.0752C1.89408 10.2629 1.99995 10.5185 1.99995 10.7853C1.99995 11.052 1.89407 11.3076 1.70573 11.4955L1.54671 11.6155C1.49594 11.6551 1.43887 11.6856 1.37766 11.7056C1.31861 11.7361 1.25465 11.7563 1.18892 11.7656L0.999985 11.7856Z" fill="#1A97DC"/>
</svg>
