<svg width="50" height="50" viewBox="0 0 50 50" fill="none" xmlns="http://www.w3.org/2000/svg">
<rect width="50" height="50" rx="4" fill="#1A97DC" fill-opacity="0.1"/>
<path d="M24.9999 12C21.5521 12 18.2452 13.3696 15.8076 15.8075C13.3697 18.2454 12 21.5521 12 24.9997C12 28.4476 13.3697 31.7543 15.8076 34.1925C18.2455 36.6304 21.5522 38 24.9999 38C28.4477 38 31.7546 36.6304 34.1922 34.1925C36.6303 31.7543 38 28.4479 38 24.9997C38 22.7179 37.3993 20.4761 36.2584 18.5001C35.1172 16.5238 33.4761 14.8827 31.4998 13.7418C29.5236 12.6009 27.2818 12.0002 25.0001 12.0002L24.9999 12ZM29.5933 25.7654H25.6154V28.5097C25.546 29.2262 25.9361 30.532 24.8757 30.5982V30.5984C24.6682 30.5958 24.4714 30.5074 24.3315 30.354C24.1919 30.2007 24.1223 29.9963 24.139 29.7895V25.7653H19.9387C19.5503 25.741 19.2479 25.4191 19.2479 25.0302C19.2479 24.6411 19.5503 24.3192 19.9387 24.2948H24.139V20.077C24.1635 19.6874 24.4866 19.3838 24.8772 19.3838C25.2677 19.3838 25.5909 19.6874 25.6154 20.077V24.2948H28.3224C29.0329 24.3613 30.3447 23.9741 30.3967 25.0285H30.3964C30.3938 25.2349 30.3061 25.431 30.1541 25.5704C30.0021 25.71 29.799 25.7805 29.5934 25.7653L29.5933 25.7654Z" fill="#1A97DC"/>
</svg>
